<?xml version="1.0" standalone="no"?>
<!DOCTYPE svg PUBLIC "-//W3C//DTD SVG 20010904//EN"
 "http://www.w3.org/TR/2001/REC-SVG-20010904/DTD/svg10.dtd">
<svg version="1.0" xmlns="http://www.w3.org/2000/svg"
 width="404.000000pt" height="404.000000pt" viewBox="0 0 404.000000 404.000000"
 preserveAspectRatio="xMidYMid meet">
<metadata>
Created by potrace 1.14, written by Peter Selinger 2001-2017
</metadata>
<g transform="translate(0.000000,404.000000) scale(0.100000,-0.100000)"
fill="#000000" stroke="none">
<path d="M1680 2458 c1 -77 5 -131 13 -145 7 -11 38 -42 70 -68 31 -26 57 -51
57 -55 0 -4 -27 -29 -59 -56 -33 -27 -65 -60 -71 -74 -6 -16 -10 -73 -8 -144
l3 -119 232 194 c127 107 232 196 232 199 0 3 -28 28 -61 55 -34 28 -83 68
-108 90 -154 133 -289 245 -294 245 -3 0 -6 -55 -6 -122z"/>
<path d="M54 2275 l-24 -24 2 -288 3 -288 59 -3 c35 -2 62 1 66 8 3 6 7 108 8
228 1 281 1 264 11 260 5 -1 87 -104 181 -228 94 -124 182 -235 196 -247 22
-20 36 -23 103 -23 63 0 84 4 102 19 l24 19 0 294 0 293 -65 0 -65 0 -1 -242
c0 -134 -4 -246 -7 -250 -9 -9 1 -22 -201 244 -98 128 -186 237 -196 243 -10
5 -53 10 -95 10 -67 0 -79 -3 -101 -25z"/>
<path d="M1070 2293 c-84 -14 -140 -59 -159 -130 -14 -50 -14 -307 0 -358 17
-59 73 -110 137 -124 59 -12 511 -16 513 -3 1 4 3 31 4 60 3 42 0 52 -13 54
-10 1 -107 2 -217 4 -110 1 -210 3 -222 3 -36 2 -71 41 -77 88 l-5 43 262 2
262 3 3 53 3 52 -58 1 c-32 0 -151 0 -265 0 l-206 -1 4 42 c3 30 13 50 30 66
24 21 31 22 253 22 171 0 231 3 239 13 8 10 10 70 3 110 -1 7 -446 8 -491 0z"/>
<path d="M2428 2278 c-2 -13 -3 -121 -2 -240 1 -207 2 -219 25 -265 18 -35 36
-55 69 -73 45 -25 48 -25 285 -25 237 0 241 0 285 25 33 18 51 38 69 74 23 46
24 57 26 270 1 121 -1 229 -3 239 -4 14 -16 17 -67 17 l-64 0 -3 -226 -3 -226
-28 -24 c-27 -23 -33 -24 -202 -24 -95 0 -185 4 -199 10 -46 17 -50 40 -53
260 -1 113 -2 211 -2 218 -1 8 -21 12 -65 12 -58 0 -64 -2 -68 -22z"/>
<path d="M3363 2279 c-52 -26 -73 -73 -73 -167 0 -76 19 -124 63 -156 26 -19
45 -21 240 -24 128 -2 217 -8 224 -14 18 -15 16 -93 -2 -108 -12 -10 -79 -13
-268 -14 l-252 -1 0 -60 0 -60 280 -3 c308 -2 325 0 368 60 31 42 36 170 9
231 -32 73 -49 78 -278 78 -108 0 -207 4 -220 9 -20 8 -24 16 -24 49 0 75 -15
71 254 71 132 0 246 4 251 8 9 6 11 42 6 105 -1 16 -21 17 -268 17 -251 0
-271 -1 -310 -21z"/>
<path d="M2097 2055 c-126 -106 -229 -197 -229 -201 -1 -4 102 -94 228 -200
l229 -194 3 118 c1 64 0 127 -3 139 -2 11 -36 47 -73 79 l-69 57 69 59 c37 32
70 69 73 81 3 12 4 74 3 138 l-3 117 -228 -193z"/>
</g>
</svg>
